<mxfile host="app.diagrams.net" modified="2022-09-08T12:07:08.014Z" agent="5.0 (Macintosh; Intel Mac OS X 10_15_7) AppleWebKit/537.36 (KHTML, like Gecko) Chrome/105.0.0.0 Safari/537.36" etag="6pvD4DlFDMnblGVqVRgW" version="20.3.0" type="github">
  <diagram id="-sj8LrOyqq6hltiMSRzP" name="Page-1">
    <mxGraphModel dx="2195" dy="745" grid="1" gridSize="10" guides="1" tooltips="1" connect="1" arrows="1" fold="1" page="1" pageScale="1" pageWidth="827" pageHeight="1169" math="0" shadow="0">
      <root>
        <mxCell id="0" />
        <mxCell id="1" parent="0" />
        <mxCell id="RvGVWLQJkFh0BpDCzxxl-1" value="" style="shape=cube;whiteSpace=wrap;html=1;boundedLbl=1;backgroundOutline=1;darkOpacity=0.05;darkOpacity2=0.1;size=60;" parent="1" vertex="1">
          <mxGeometry x="-16" y="240" width="80" height="220" as="geometry" />
        </mxCell>
        <mxCell id="MO8oAzylotgmJiTrCiG0-2" value="" style="shape=cube;whiteSpace=wrap;html=1;boundedLbl=1;backgroundOutline=1;darkOpacity=0.05;darkOpacity2=0.1;fillColor=#dae8fc;strokeColor=#6c8ebf;size=10;" vertex="1" parent="1">
          <mxGeometry x="4" y="325" width="20" height="50" as="geometry" />
        </mxCell>
        <mxCell id="MO8oAzylotgmJiTrCiG0-4" value="&lt;font style=&quot;font-size: 12px;&quot;&gt;1&lt;/font&gt;" style="whiteSpace=wrap;html=1;gradientColor=none;fillColor=none;strokeColor=none;" vertex="1" parent="1">
          <mxGeometry x="-6" y="440" width="120" height="60" as="geometry" />
        </mxCell>
        <mxCell id="MO8oAzylotgmJiTrCiG0-6" value="&lt;font style=&quot;font-size: 12px;&quot;&gt;5x64x64&lt;/font&gt;" style="text;html=1;align=center;verticalAlign=middle;resizable=0;points=[];autosize=1;strokeColor=none;fillColor=none;fontSize=18;rotation=-90;" vertex="1" parent="1">
          <mxGeometry x="-66" y="310" width="70" height="40" as="geometry" />
        </mxCell>
        <mxCell id="MO8oAzylotgmJiTrCiG0-7" value="&lt;font style=&quot;font-size: 12px;&quot;&gt;3x3x3&lt;/font&gt;" style="text;html=1;align=center;verticalAlign=middle;resizable=0;points=[];autosize=1;strokeColor=none;fillColor=none;fontSize=18;rotation=45;" vertex="1" parent="1">
          <mxGeometry x="-16" y="360" width="60" height="40" as="geometry" />
        </mxCell>
        <mxCell id="MO8oAzylotgmJiTrCiG0-8" value="" style="shape=cube;whiteSpace=wrap;html=1;boundedLbl=1;backgroundOutline=1;darkOpacity=0.05;darkOpacity2=0.1;size=60;" vertex="1" parent="1">
          <mxGeometry x="789" y="240" width="80" height="220" as="geometry" />
        </mxCell>
        <mxCell id="MO8oAzylotgmJiTrCiG0-9" value="" style="shape=cube;whiteSpace=wrap;html=1;boundedLbl=1;backgroundOutline=1;darkOpacity=0.05;darkOpacity2=0.1;fillColor=#dae8fc;strokeColor=#6c8ebf;size=10;" vertex="1" parent="1">
          <mxGeometry x="809" y="325" width="20" height="50" as="geometry" />
        </mxCell>
        <mxCell id="MO8oAzylotgmJiTrCiG0-10" value="&lt;font style=&quot;font-size: 12px;&quot;&gt;3x3x3&lt;/font&gt;" style="text;html=1;align=center;verticalAlign=middle;resizable=0;points=[];autosize=1;strokeColor=none;fillColor=none;fontSize=18;rotation=45;" vertex="1" parent="1">
          <mxGeometry x="789" y="360" width="60" height="40" as="geometry" />
        </mxCell>
        <mxCell id="MO8oAzylotgmJiTrCiG0-11" value="&lt;font style=&quot;font-size: 12px;&quot;&gt;5x64x64&lt;/font&gt;" style="text;html=1;align=center;verticalAlign=middle;resizable=0;points=[];autosize=1;strokeColor=none;fillColor=none;fontSize=18;rotation=-90;" vertex="1" parent="1">
          <mxGeometry x="743" y="310" width="70" height="40" as="geometry" />
        </mxCell>
        <mxCell id="MO8oAzylotgmJiTrCiG0-12" value="" style="shape=cube;whiteSpace=wrap;html=1;boundedLbl=1;backgroundOutline=1;darkOpacity=0.05;darkOpacity2=0.1;size=70;" vertex="1" parent="1">
          <mxGeometry x="106" y="240" width="118" height="220" as="geometry" />
        </mxCell>
        <mxCell id="MO8oAzylotgmJiTrCiG0-13" value="" style="shape=cube;whiteSpace=wrap;html=1;boundedLbl=1;backgroundOutline=1;darkOpacity=0.05;darkOpacity2=0.1;fillColor=#dae8fc;strokeColor=#6c8ebf;size=10;" vertex="1" parent="1">
          <mxGeometry x="136" y="305" width="20" height="50" as="geometry" />
        </mxCell>
        <mxCell id="MO8oAzylotgmJiTrCiG0-14" value="&lt;font style=&quot;font-size: 12px;&quot;&gt;3x3x3&lt;/font&gt;" style="text;html=1;align=center;verticalAlign=middle;resizable=0;points=[];autosize=1;strokeColor=none;fillColor=none;fontSize=18;rotation=45;" vertex="1" parent="1">
          <mxGeometry x="106" y="340" width="60" height="40" as="geometry" />
        </mxCell>
        <mxCell id="MO8oAzylotgmJiTrCiG0-15" value="&lt;font style=&quot;font-size: 12px;&quot;&gt;1&lt;/font&gt;" style="whiteSpace=wrap;html=1;gradientColor=none;fillColor=none;strokeColor=none;" vertex="1" parent="1">
          <mxGeometry x="799" y="440" width="120" height="60" as="geometry" />
        </mxCell>
        <mxCell id="MO8oAzylotgmJiTrCiG0-16" value="&lt;font style=&quot;font-size: 12px;&quot;&gt;32&lt;/font&gt;" style="whiteSpace=wrap;html=1;gradientColor=none;fillColor=none;strokeColor=none;" vertex="1" parent="1">
          <mxGeometry x="139" y="440" width="120" height="60" as="geometry" />
        </mxCell>
        <mxCell id="MO8oAzylotgmJiTrCiG0-17" value="&lt;font style=&quot;font-size: 12px;&quot;&gt;5x64x64&lt;/font&gt;" style="text;html=1;align=center;verticalAlign=middle;resizable=0;points=[];autosize=1;strokeColor=none;fillColor=none;fontSize=18;rotation=-90;" vertex="1" parent="1">
          <mxGeometry x="60" y="300" width="70" height="40" as="geometry" />
        </mxCell>
        <mxCell id="MO8oAzylotgmJiTrCiG0-30" value="" style="shape=cube;whiteSpace=wrap;html=1;boundedLbl=1;backgroundOutline=1;darkOpacity=0.05;darkOpacity2=0.1;size=70;" vertex="1" parent="1">
          <mxGeometry x="646" y="240" width="118" height="220" as="geometry" />
        </mxCell>
        <mxCell id="MO8oAzylotgmJiTrCiG0-31" value="" style="shape=cube;whiteSpace=wrap;html=1;boundedLbl=1;backgroundOutline=1;darkOpacity=0.05;darkOpacity2=0.1;fillColor=#dae8fc;strokeColor=#6c8ebf;size=10;" vertex="1" parent="1">
          <mxGeometry x="676" y="305" width="20" height="50" as="geometry" />
        </mxCell>
        <mxCell id="MO8oAzylotgmJiTrCiG0-32" value="&lt;font style=&quot;font-size: 12px;&quot;&gt;3x3x3&lt;/font&gt;" style="text;html=1;align=center;verticalAlign=middle;resizable=0;points=[];autosize=1;strokeColor=none;fillColor=none;fontSize=18;rotation=45;" vertex="1" parent="1">
          <mxGeometry x="646" y="340" width="60" height="40" as="geometry" />
        </mxCell>
        <mxCell id="MO8oAzylotgmJiTrCiG0-33" value="&lt;font style=&quot;font-size: 12px;&quot;&gt;32&lt;/font&gt;" style="whiteSpace=wrap;html=1;gradientColor=none;fillColor=none;strokeColor=none;" vertex="1" parent="1">
          <mxGeometry x="679" y="440" width="120" height="60" as="geometry" />
        </mxCell>
        <mxCell id="MO8oAzylotgmJiTrCiG0-34" value="&lt;font style=&quot;font-size: 12px;&quot;&gt;5x64x64&lt;/font&gt;" style="text;html=1;align=center;verticalAlign=middle;resizable=0;points=[];autosize=1;strokeColor=none;fillColor=none;fontSize=18;rotation=-90;" vertex="1" parent="1">
          <mxGeometry x="600" y="300" width="70" height="40" as="geometry" />
        </mxCell>
        <mxCell id="MO8oAzylotgmJiTrCiG0-35" value="" style="shape=cube;whiteSpace=wrap;html=1;boundedLbl=1;backgroundOutline=1;darkOpacity=0.05;darkOpacity2=0.1;size=60;" vertex="1" parent="1">
          <mxGeometry x="260" y="260" width="110" height="180" as="geometry" />
        </mxCell>
        <mxCell id="MO8oAzylotgmJiTrCiG0-36" value="" style="shape=cube;whiteSpace=wrap;html=1;boundedLbl=1;backgroundOutline=1;darkOpacity=0.05;darkOpacity2=0.1;fillColor=#dae8fc;strokeColor=#6c8ebf;size=10;" vertex="1" parent="1">
          <mxGeometry x="280" y="305" width="20" height="50" as="geometry" />
        </mxCell>
        <mxCell id="MO8oAzylotgmJiTrCiG0-37" value="&lt;font style=&quot;font-size: 12px;&quot;&gt;3x3x3&lt;/font&gt;" style="text;html=1;align=center;verticalAlign=middle;resizable=0;points=[];autosize=1;strokeColor=none;fillColor=none;fontSize=18;rotation=45;" vertex="1" parent="1">
          <mxGeometry x="250" y="340" width="60" height="40" as="geometry" />
        </mxCell>
        <mxCell id="MO8oAzylotgmJiTrCiG0-38" value="&lt;font style=&quot;font-size: 12px;&quot;&gt;64&lt;/font&gt;" style="whiteSpace=wrap;html=1;gradientColor=none;fillColor=none;strokeColor=none;" vertex="1" parent="1">
          <mxGeometry x="280" y="420" width="120" height="60" as="geometry" />
        </mxCell>
        <mxCell id="MO8oAzylotgmJiTrCiG0-39" value="&lt;font style=&quot;font-size: 12px;&quot;&gt;5x64x64&lt;/font&gt;" style="text;html=1;align=center;verticalAlign=middle;resizable=0;points=[];autosize=1;strokeColor=none;fillColor=none;fontSize=18;rotation=-90;" vertex="1" parent="1">
          <mxGeometry x="213" y="300" width="70" height="40" as="geometry" />
        </mxCell>
      </root>
    </mxGraphModel>
  </diagram>
</mxfile>
